<?xml version="1.0" standalone="no"?>
<svg version="1.0" xmlns="http://www.w3.org/2000/svg"
 width="40.000000pt" height="40.000000pt" viewBox="0 0 40.000000 40.000000"
 preserveAspectRatio="xMidYMid meet">
<g transform="translate(0.000000,40.000000) scale(0.100000,-0.100000)"
fill="current" stroke="none">
<path d="M40 330 c0 -16 5 -30 10 -30 6 0 10 9 10 20 0 19 7 20 140 20 l140 0
0 -55 c0 -30 5 -55 10 -55 6 0 10 28 10 65 l0 65 -160 0 -160 0 0 -30z"/>
<path d="M30 234 c0 -32 2 -35 26 -32 56 6 53 68 -2 68 -21 0 -24 -5 -24 -36z"/>
<path d="M119 268 c0 -2 -2 -18 -3 -35 -3 -27 0 -33 16 -33 14 0 18 5 14 16
-3 9 -6 24 -6 35 0 10 -4 19 -10 19 -5 0 -10 -1 -11 -2z"/>
<path d="M188 188 c-2 -17 -9 -22 -26 -21 -14 2 -22 -3 -22 -13 0 -11 8 -14
33 -12 28 3 32 7 35 36 4 36 -15 45 -20 10z"/>
<path d="M220 175 c0 -19 5 -35 10 -35 6 0 10 5 10 10 0 6 8 5 20 -2 25 -16
39 -2 15 16 -18 13 -18 13 1 24 10 6 15 14 11 18 -4 5 -17 3 -27 -4 -12 -7
-20 -8 -20 -2 0 5 -4 10 -10 10 -5 0 -10 -16 -10 -35z"/>
<path d="M310 191 c0 -12 8 -21 23 -24 l22 -4 -22 -2 c-37 -2 -26 -21 12 -21
28 0 35 4 35 19 0 14 -8 21 -27 24 l-28 4 28 2 c40 2 33 21 -8 21 -28 0 -35
-4 -35 -19z"/>
<path d="M40 110 l0 -60 160 0 160 0 0 25 c0 14 -4 25 -10 25 -5 0 -10 -7 -10
-15 0 -13 -22 -15 -140 -15 l-140 0 0 50 c0 28 -4 50 -10 50 -6 0 -10 -27 -10
-60z"/>
</g>
</svg>
