<!--<svg xmlns="http://www.w3.org/2000/svg" viewBox="0 0 100 100">-->

<!--&lt;!&ndash;    <defs>&ndash;&gt;-->
<!--&lt;!&ndash;        <mask id="square-mask">&ndash;&gt;-->
<!--&lt;!&ndash;            <rect x="0" y="0" width="100" height="100" fill="white"/>&ndash;&gt;-->
<!--&lt;!&ndash;            <rect x="10" y="13" width="16" height="53" fill="black"/>&ndash;&gt;-->
<!--&lt;!&ndash;        </mask>&ndash;&gt;-->
<!--&lt;!&ndash;    </defs>&ndash;&gt;-->
<!--    &lt;!&ndash;    <rect x="20" y="5" width="70" height="70" fill="none" stroke="currentColor" stroke-width="8" mask="url(#square-mask)" />&ndash;&gt;-->

<!--&lt;!&ndash;    &lt;!&ndash; Top stroke &ndash;&gt;&ndash;&gt;-->
<!--&lt;!&ndash;    <line x1="14" y1="5" x2="92" y2="5" stroke="currentColor" stroke-width="8"/>&ndash;&gt;-->

<!--&lt;!&ndash;    &lt;!&ndash; Right stroke &ndash;&gt;&ndash;&gt;-->
<!--&lt;!&ndash;    <line x1="88" y1="5" x2="88" y2="88" stroke="currentColor" stroke-width="8"/>&ndash;&gt;-->

<!--&lt;!&ndash;    &lt;!&ndash; Bottom stroke &ndash;&gt;&ndash;&gt;-->
<!--&lt;!&ndash;    <line x1="14" y1="88" x2="92" y2="88" stroke="currentColor" stroke-width="8"/>&ndash;&gt;-->

<!--&lt;!&ndash;    &lt;!&ndash; Left stroke top &ndash;&gt;&ndash;&gt;-->
<!--&lt;!&ndash;    <line x1="18" y1="5" x2="18" y2="20" stroke="currentColor" stroke-width="8"/>&ndash;&gt;-->

<!--&lt;!&ndash;    &lt;!&ndash; Left stroke bottom &ndash;&gt;&ndash;&gt;-->
<!--&lt;!&ndash;    <line x1="18" y1="88" x2="18" y2="75" stroke="currentColor" stroke-width="8"/>&ndash;&gt;-->

<!--    <rect x="14" y="5" width="78" height="8" fill="currentColor"/> &lt;!&ndash; top &ndash;&gt;-->
<!--    <rect x="88" y="5" width="8" height="83" fill="currentColor"/> &lt;!&ndash; right &ndash;&gt;-->
<!--    <rect x="14" y="82" width="82" height="8" fill="currentColor"/> &lt;!&ndash; bottom &ndash;&gt;-->
<!--    <rect x="14" y="5" width="8" height="15" fill="currentColor"/> &lt;!&ndash; left top &ndash;&gt;-->
<!--    <rect x="14" y="75" width="8" height="13" fill="currentColor"/> &lt;!&ndash; left bottom &ndash;&gt;-->


<!--    <text x="57" y="53"  font-size="60" font-weight="bold" fill="currentColor" text-anchor="middle" dominant-baseline="middle">1</text>-->

<!--    <text x="0" y="53"  font-size="60" font-weight="bold" fill="currentColor" dominant-baseline="middle">D</text>-->
<!--</svg>-->



<svg xmlns="http://www.w3.org/2000/svg" viewBox="0 0 100 100">
<!-- top rectangle as path -->
<path d="M14 5 H92 V13 H14 Z" fill="currentColor"/>
<!-- right rectangle -->
<path d="M88 5 H96 V88 H88 Z" fill="currentColor"/>
<!-- bottom rectangle -->
<path d="M14 82 H96 V91 H14 Z" fill="currentColor"/>
<!-- left top rectangle -->
<path d="M14 5 H22 V20 H14 Z" fill="currentColor"/>
<!-- left bottom rectangle -->
<path d="M14 75 H22 V88 H14 Z" fill="currentColor"/>

<!-- letters -->
<text x="57" y="53" font-size="60" font-weight="bold" fill="currentColor"
      text-anchor="middle" dominant-baseline="middle">1</text>
<text x="0" y="53" font-size="60" font-weight="bold" fill="currentColor"
      dominant-baseline="middle">D</text>
</svg>
